<svg xmlns="http://www.w3.org/2000/svg" width="1em" height="1em" viewBox="0 0 24 24"><path fill="#7843e6" d="M4.75 1.875a2.125 2.125 0 1 0 0 4.25a2.125 2.125 0 0 0 0-4.25Zm-2 6A.125.125 0 0 0 2.625 8v13c0 .069.056.125.125.125h4A.125.125 0 0 0 6.875 21V8a.125.125 0 0 0-.125-.125h-4Zm6.5 0A.125.125 0 0 0 9.125 8v13c0 .069.056.125.125.125h4a.125.125 0 0 0 .125-.125v-7a1.875 1.875 0 1 1 3.75 0v7c0 .069.056.125.125.125h4a.125.125 0 0 0 .125-.125v-8.62c0-2.427-2.11-4.325-4.525-4.106a7.168 7.168 0 0 0-2.169.548l-1.306.56V8a.125.125 0 0 0-.125-.125h-4Z"/></svg>