<svg xmlns="http://www.w3.org/2000/svg" viewBox="0 0 96 96" id="Mail"><switch><g fill="#8e19ff" class="color000000 svgShape"><path d="M80 12H16C9.373 12 4 17.373 4 24v48c0 6.627 5.373 12 12 12h64c6.627 0 12-5.373 12-12V24c0-6.627-5.373-12-12-12zm0 8c.462 0 .906.078 1.318.223L48 46.878 14.682 20.223A3.964 3.964 0 0 1 16 20h64zm0 56H16a4 4 0 0 1-4-4V28.322l33.501 26.801c.73.585 1.614.877 2.499.877s1.769-.292 2.499-.877L84 28.322V72a4 4 0 0 1-4 4z" fill="#8e19ff" class="color000000 svgShape"></path></g></switch></svg>